<?xml version="1.0" standalone="no"?><!DOCTYPE svg PUBLIC "-//W3C//DTD SVG 1.1//EN" "http://www.w3.org/Graphics/SVG/1.1/DTD/svg11.dtd"><svg t="1722695368066" class="icon" viewBox="0 0 1024 1024" version="1.1" xmlns="http://www.w3.org/2000/svg" p-id="3573" xmlns:xlink="http://www.w3.org/1999/xlink" width="200" height="200"><path d="M511.3 63.9C263.7 63.9 63.1 264.5 63.1 512s200.7 448.2 448.2 448.2S959.4 759.6 959.4 512 758.8 63.9 511.3 63.9zM413 725.2c-5.4 10.3-16.1 16.9-27.7 17.1H280.7V639.9c-0.3-11.3 4.4-22.3 12.8-29.9l243.2-247.5L656.2 482 413 725.2z m320-315.8l-29.9 29.9-119.4-119.5 29.9-29.9c16.6-16.3 43.1-16.3 59.7 0l59.7 59.7c16.3 16.7 16.3 43.3 0 59.8z" p-id="3574"></path></svg>