<?xml version="1.0" standalone="no"?><!DOCTYPE svg PUBLIC "-//W3C//DTD SVG 1.1//EN" "http://www.w3.org/Graphics/SVG/1.1/DTD/svg11.dtd"><svg t="1722695155285" class="icon" viewBox="0 0 1026 1024" version="1.1" xmlns="http://www.w3.org/2000/svg" p-id="1512" xmlns:xlink="http://www.w3.org/1999/xlink" width="200.390625" height="200"><path d="M988.861 791.158a129.999 129.999 0 0 1-13.713 11.656L793.005 623.906c3.56-4.625 7.359-9.116 11.65-13.331 50.863-49.873 133.327-49.873 184.206 0 50.85 49.874 50.85 130.71 0 180.583zM781.549 354.039c-1.046 9.191-2.438 18.263-4.231 27.189-0.329 1.528-0.718 3.04-1.062 4.544-1.795 8.206-3.874 16.274-6.312 24.217-0.434 1.439-0.823 2.899-1.286 4.309-2.707 8.42-5.833 16.701-9.243 24.79a242.914 242.914 0 0 1-2.781 6.416c-3.574 8.016-7.357 15.915-11.546 23.55-0.612 1.1-1.301 2.15-1.929 3.229-3.725 6.629-7.747 13.044-11.965 19.357-1.57 2.32-3.081 4.639-4.681 6.944-4.666 6.6-9.542 13.037-14.701 19.262-1.734 2.1-3.559 4.14-5.339 6.195a321.306 321.306 0 0 1-13.311 14.388c-1.854 1.878-3.664 3.816-5.533 5.668-5.684 5.476-11.636 10.702-17.707 15.767a337.618 337.618 0 0 1-7.448 6.063c-6.296 4.947-12.728 9.734-19.383 14.213 0.195 0.073 0.419 0.189 0.614 0.277 10.798 4.581 21.296 9.632 31.63 14.961 4.562 2.365 9.003 4.859 13.46 7.342a459.75 459.75 0 0 1 20.504 12.214c4.382 2.746 8.869 5.403 13.131 8.325 1.496 0.997 2.887 2.172 4.366 3.2l-4.231 4.859c7.986 7.781 12.937 18.352 12.937 30.067l0.419 4.009c0 23.857-20.475 43.223-45.734 43.223-17.184 0-32.004-9.074-39.811-22.347-52.136-30.8-112.495-49.594-177.365-51.574-3.873 0.146-7.679 0.572-11.605 0.572-3.925 0-7.702-0.427-11.575-0.572-182.613 5.593-331.479 141.616-353.299 316.429h-1.144l0.044 0.559c0 24.913-20.548 45.101-45.919 45.101-25.379 0-45.951-20.188-45.951-45.101l-0.419-4.184c0-5.889 1.219-11.496 3.313-16.664 0.075-0.572 0.225-1.072 0.299-1.645 4.315-28.776 11.306-56.598 20.862-83.333 0.314-0.866 0.636-1.718 0.95-2.584 6.019-16.458 12.921-32.445 20.743-47.979 0.763-1.468 1.421-2.965 2.176-4.434a460.814 460.814 0 0 1 12.257-22.081c1.562-2.657 3.245-5.285 4.875-7.898a446.779 446.779 0 0 1 23.114-33.768c2.707-3.568 5.339-7.179 8.143-10.673a454.614 454.614 0 0 1 13.55-16.15c3.948-4.508 8.068-8.839 12.188-13.17a460.745 460.745 0 0 1 20.698-20.437c5.07-4.683 10.162-9.308 15.457-13.784 4.487-3.773 8.996-7.503 13.624-11.115 6.805-5.313 13.774-10.395 20.87-15.327 5.631-3.921 11.381-7.68 17.185-11.334 7.021-4.435 14.14-8.72 21.423-12.758 4.442-2.467 8.876-4.935 13.408-7.254 10.072-5.197 20.287-10.101 30.764-14.549 0.269-0.087 0.539-0.235 0.786-0.352-6.708-4.508-13.139-9.308-19.458-14.286a258.087 258.087 0 0 1-7.313-5.916c-6.236-5.197-12.331-10.557-18.156-16.208-1.585-1.528-3.097-3.171-4.636-4.758a308.568 308.568 0 0 1-13.969-15.077c-1.75-2.012-3.529-3.965-5.212-6.034-5.167-6.24-10.094-12.729-14.775-19.35-1.607-2.305-3.141-4.625-4.704-6.944-4.172-6.248-8.121-12.59-11.822-19.122-0.68-1.169-1.414-2.343-2.072-3.54-4.194-7.612-7.948-15.437-11.485-23.402-0.949-2.179-1.944-4.36-2.849-6.563-3.364-8.015-6.438-16.171-9.145-24.502-0.531-1.652-0.949-3.304-1.458-4.957a316.186 316.186 0 0 1-6.214-23.739c-0.344-1.526-0.711-3.009-1.024-4.544-1.832-8.97-3.223-18.064-4.271-27.277-0.247-2.106-0.411-4.214-0.605-6.32-0.882-9.456-1.466-18.999-1.466-28.696 0-174.716 144.268-316.312 322.215-316.312s322.222 141.595 322.222 316.312c0 9.669-0.583 19.219-1.465 28.674-0.197 2.13-0.377 4.26-0.617 6.389zM461.31 93.126c-127.099 0-230.142 101.155-230.142 225.926 0 124.777 103.042 225.956 230.142 225.956 127.121 0 230.164-101.179 230.164-225.956 0-124.771-103.043-225.926-230.164-225.926z m282.582 643.227l105.167 103.093-185.807 171.229c-17.243 17.751-45.165 17.751-62.408 0l-20.788-21.449c-17.244-17.734-17.244-46.511 0-64.276l163.836-188.597z m126.732 147.254c25.38 0 45.958 20.172 45.958 45.101l0.403 4.171c0 0.191-0.044 0.322-0.044 0.528 0.732 2.128 1.36 4.272 1.734 6.503 0.479 2.468 0.778 4.977 0.778 7.592l0.418 4.184c0 24.913-20.578 45.101-45.958 45.101a47.1 47.1 0 0 1-9.048-0.881c-21.057-4.11-36.896-22.345-36.896-44.22l-0.419-4.184c0-0.191 0.046-0.383 0.046-0.587-1.481-4.45-2.483-9.118-2.483-14.036l-0.433-4.171c0.002-24.929 20.565-45.101 45.944-45.101z m-92.648-234.361l171.239 168.207c-23.106 9.865-48.456 12.42-73.057 8.543L763.857 715.871c1.286-0.837 2.558-1.703 3.903-2.423-2.198-21.743 1.212-43.883 10.216-64.202z" fill="#CA7991" p-id="1513" data-spm-anchor-id="a313x.search_index.0.i0.48c53a81IsxEwb" class="selected"></path></svg>