<?xml version="1.0" standalone="no"?><!DOCTYPE svg PUBLIC "-//W3C//DTD SVG 1.1//EN" "http://www.w3.org/Graphics/SVG/1.1/DTD/svg11.dtd"><svg t="1722695262233" class="icon" viewBox="0 0 1024 1024" version="1.1" xmlns="http://www.w3.org/2000/svg" p-id="2551" xmlns:xlink="http://www.w3.org/1999/xlink" width="200" height="200"><path d="M707.040842 267.326476c0 111.038751-96.783161 201.047091-216.213582 201.047091s-216.213581-90.042498-216.213581-201.047091 103.614913-202.675325 216.213581-201.035704c119.396262 1.673779 216.213581 89.974181 216.213582 201.035704z" p-id="2552"></path><path d="M886.249097 835.26145a182.464724 182.464724 0 0 0-129.609732-146.882679l-175.428019-43.267766-9.894655-117.198715H421.860719L410.656644 644.917439l-160.956089 41.912801A182.47611 182.47611 0 0 0 123.643334 832.699543L93.970756 1021.358389H915.523156z" fill="#FFE7D9" p-id="2553"></path><path d="M652.307118 306.996186c64.525903-27.520576 90.657356 94.631159 4.907475 143.125215z" fill="#FFCFB5" p-id="2554"></path><path d="M659.7765 371.818131c0.421291-39.30535-6.706504-73.874017-13.367462-101.269345-7.81097-32.075078-37.369686-80.125071-159.031813-80.125071-86.535532 0-143.888094 38.804354-156.629313 94.972747-0.193566 0.865355-9.245638 55.086698-8.90405 86.421669l-1.024763 86.808802c4.918862 53.071331 87.207321 114.466014 183.910778 112.382329 57.625833 0 156.06-48.607919 156.06-112.382329z" fill="#FFE7D9" p-id="2555"></path><path d="M325.760733 315.501718c-64.50313-27.520576-90.691515 94.631159-4.918862 143.113829z" fill="#FFCFB5" p-id="2556"></path><path d="M692.27287 105.709984a69.239812 69.239812 0 1 1-109.308041-84.987001c23.46707-30.196346 69.046246-24.582923 99.242592-1.138626s33.532519 55.929281 10.065449 86.125627z" p-id="2557"></path><path d="M564.018102 137.716745l-82.106279-22.430921c-16.715021-6.08026-21.781904-27.645825-10.384264-44.201439l29.034949-42.208844c11.386254-16.555614 33.350339-19.527426 45.009863-6.091646l50.281698 68.681885zM595.45555 159.339241l50.281699 68.681886c11.648138 13.43578 33.612222 10.463968 44.998476-6.091646l29.046335-42.208845c11.386254-16.555614 6.319371-38.121179-10.39565-44.201438l-82.106279-22.430921z" fill="#C8E6FD" p-id="2558"></path><path d="M594.664618 76.448181m3.489483 2.400947l42.33344 29.127614q3.489484 2.400947 1.088536 5.890431l-40.254582 58.505131q-2.400947 3.489484-5.89043 1.088537l-42.333439-29.127614q-3.489484-2.400947-1.088537-5.89043l40.254582-58.505132q2.400947-3.489484 5.89043-1.088537Z" fill="#C8E6FD" p-id="2559"></path><path d="M626.927157 135.120679l41.798939 18.263551M614.97159 152.268378l33.031523 31.448834M575.495447 99.732201l-31.995375-32.507756M563.756219 117.016535l-41.184082-19.60713" fill="#C8E6FD" p-id="2560"></path><path d="M271.869592 1017.748946V808.868113a15.098173 15.098173 0 0 1 15.086787-15.075401h435.592541a15.098173 15.098173 0 0 1 15.0754 15.075401v208.880833z" fill="#ABB5BC" p-id="2561"></path><path d="M722.54892 794.601136a14.278363 14.278363 0 0 1 14.266976 14.266977v208.083796H272.643857V808.868113a14.289749 14.289749 0 0 1 14.278363-14.266977h435.6267m0-1.616848H286.956379a15.940756 15.940756 0 0 0-15.883825 15.940756v209.632326h467.36019V808.868113a15.940756 15.940756 0 0 0-15.940756-15.940756z" p-id="2562"></path><path d="M659.04778 848.42396L718.313233 666.095871l58.138214 19.595744-82.208755 175.917627-35.194912-13.185282z" fill="#ABB5BC" p-id="2563"></path><path d="M718.837001 667.120634l56.498593 19.049204-81.502807 174.380483-33.77163-12.650129 58.775844-180.825103m-1.036149-2.049526l-59.755062 183.888006 36.618193 13.720436 82.903317-177.431999-59.720903-20.130898z" p-id="2564"></path><path d="M306.996186 657.339842l105.436714 363.973002H77.187417l29.809214-240.705414a92.444998 92.444998 0 0 1 61.82736-76.048792zM915.523156 876.764347l31.198337 146.48416-351.265943-4.691137L915.523156 876.764347z" fill="#C8E6FD" p-id="2565"></path><path d="M266.358645 682.492077l93.811348 324.041409" fill="#DA0001" p-id="2566"></path><path d="M305.953205 425.774174l31.39418 34.272625-34.272625 31.39418-31.39418-34.272625zM678.954368 425.885759l35.81774 29.620202-29.620202 35.81774-35.817739-29.620202z" fill="#C8E6FD" p-id="2567"></path><path d="M687.513416 824.820255m-13.697664 0a13.697664 13.697664 0 1 0 27.395327 0 13.697664 13.697664 0 1 0-27.395327 0Z" fill="#ABB5BC" p-id="2568"></path><path d="M687.513416 811.942402a12.88924 12.88924 0 1 1-12.934785 12.889239 12.900626 12.900626 0 0 1 12.88924-12.889239m0-1.616849a14.506088 14.506088 0 1 0 14.506087 14.506088 14.506088 14.506088 0 0 0-14.506087-14.506088z" p-id="2569"></path></svg>